<svg xmlns="http://www.w3.org/2000/svg" xmlns:xlink="http://www.w3.org/1999/xlink" width="333px" height="60px" viewBox="0 0 333 60" version="1.1">
<g id="surface1">
<path style=" stroke:none;fill-rule:nonzero;fill:#00faf0;fill-opacity:1;" d="M 58.878906 16.574219 C 53.464844 18.402344 49.246094 21.871094 46.726562 26.722656 C 45.214844 29.558594 45.027344 30.628906 45.027344 36.238281 C 45.027344 42.039062 45.152344 42.792969 46.914062 45.945312 C 52.078125 55.273438 64.105469 59.242188 73.992188 54.894531 C 77.644531 53.320312 82.117188 49.097656 83.753906 45.757812 C 88.980469 34.914062 84.824219 22.5625 74.371094 17.773438 C 70.214844 15.820312 62.847656 15.316406 58.878906 16.574219 Z M 74.371094 19.980469 C 85.011719 25.902344 86.777344 41.46875 77.769531 49.726562 C 73.867188 53.320312 71.097656 54.390625 65.492188 54.453125 C 61.839844 54.453125 60.011719 54.136719 57.429688 53.003906 C 46.222656 47.960938 43.453125 32.144531 52.140625 23.128906 C 56.296875 18.84375 59.507812 17.585938 66.183594 17.898438 C 70.152344 18.023438 71.601562 18.402344 74.371094 19.980469 Z M 74.371094 19.980469 "/>
<path style=" stroke:none;fill-rule:nonzero;fill:#00faf0;fill-opacity:1;" d="M 60.390625 23.632812 C 51.324219 26.535156 48.742188 38.824219 55.667969 45.757812 C 62.089844 52.246094 72.796875 50.671875 77.203125 42.667969 C 78.652344 40.019531 78.84375 39.074219 78.589844 35.421875 C 78.402344 33.089844 78.085938 30.691406 77.835938 30.125 C 77.457031 29.308594 77.769531 28.992188 79.15625 28.800781 C 80.730469 28.550781 80.730469 28.550781 78.90625 28.613281 C 77.457031 28.613281 76.261719 28.109375 74.8125 26.660156 C 73.679688 25.589844 72.105469 24.390625 71.410156 24.011719 C 69.019531 22.816406 63.476562 22.625 60.390625 23.632812 Z M 70.339844 25.902344 C 74.117188 27.730469 76.195312 31.386719 76.195312 36.175781 C 76.195312 40.335938 75.253906 42.542969 72.167969 45.253906 C 66.878906 49.851562 57.808594 47.710938 55.101562 41.15625 C 50.820312 30.882812 60.578125 21.175781 70.339844 25.902344 Z M 70.339844 25.902344 "/>
<path style=" stroke:none;fill-rule:nonzero;fill:#00faf0;fill-opacity:1;" d="M 49.9375 28.800781 C 50.503906 28.929688 51.511719 28.929688 52.140625 28.800781 C 52.707031 28.613281 52.203125 28.488281 51.007812 28.488281 C 49.8125 28.488281 49.308594 28.613281 49.9375 28.800781 Z M 49.9375 28.800781 "/>
<path style=" stroke:none;fill-rule:nonzero;fill:#00faf0;fill-opacity:1;" d="M 48.992188 32.585938 C 49.371094 32.710938 50.125 32.710938 50.566406 32.585938 C 50.945312 32.394531 50.628906 32.269531 49.75 32.269531 C 48.867188 32.269531 48.550781 32.394531 48.992188 32.585938 Z M 48.992188 32.585938 "/>
<path style=" stroke:none;fill-rule:nonzero;fill:#00faf0;fill-opacity:1;" d="M 80.164062 32.585938 C 80.730469 32.710938 81.613281 32.710938 82.054688 32.585938 C 82.429688 32.394531 81.992188 32.269531 80.921875 32.269531 C 79.914062 32.269531 79.535156 32.394531 80.164062 32.585938 Z M 80.164062 32.585938 "/>
<path style=" stroke:none;fill-rule:nonzero;fill:#00faf0;fill-opacity:1;" d="M 48.679688 33.84375 C 49.246094 33.96875 50.125 33.96875 50.566406 33.84375 C 50.945312 33.65625 50.503906 33.53125 49.433594 33.53125 C 48.425781 33.53125 48.046875 33.65625 48.679688 33.84375 Z M 48.679688 33.84375 "/>
<path style=" stroke:none;fill-rule:nonzero;fill:#00faf0;fill-opacity:1;" d="M 80.480469 33.84375 C 80.855469 33.96875 81.613281 33.96875 82.054688 33.84375 C 82.429688 33.65625 82.117188 33.53125 81.234375 33.53125 C 80.351562 33.53125 80.039062 33.65625 80.480469 33.84375 Z M 80.480469 33.84375 "/>
<path style=" stroke:none;fill-rule:nonzero;fill:#00faf0;fill-opacity:1;" d="M 48.363281 35.105469 C 48.742188 35.230469 49.496094 35.230469 49.9375 35.105469 C 50.316406 34.914062 50 34.789062 49.117188 34.789062 C 48.238281 34.789062 47.921875 34.914062 48.363281 35.105469 Z M 48.363281 35.105469 "/>
<path style=" stroke:none;fill-rule:nonzero;fill:#00faf0;fill-opacity:1;" d="M 80.480469 35.105469 C 80.855469 35.230469 81.613281 35.230469 82.054688 35.105469 C 82.429688 34.914062 82.117188 34.789062 81.234375 34.789062 C 80.351562 34.789062 80.039062 34.914062 80.480469 35.105469 Z M 80.480469 35.105469 "/>
<path style=" stroke:none;fill-rule:nonzero;fill:#00faf0;fill-opacity:1;" d="M 48.679688 36.367188 C 49.246094 36.492188 50.125 36.492188 50.566406 36.367188 C 50.945312 36.175781 50.503906 36.050781 49.433594 36.050781 C 48.425781 36.050781 48.046875 36.175781 48.679688 36.367188 Z M 48.679688 36.367188 "/>
<path style=" stroke:none;fill-rule:nonzero;fill:#00faf0;fill-opacity:1;" d="M 80.480469 36.367188 C 80.855469 36.492188 81.613281 36.492188 82.054688 36.367188 C 82.429688 36.175781 82.117188 36.050781 81.234375 36.050781 C 80.351562 36.050781 80.039062 36.175781 80.480469 36.367188 Z M 80.480469 36.367188 "/>
<path style=" stroke:none;fill-rule:nonzero;fill:#00faf0;fill-opacity:1;" d="M 48.363281 37.625 C 48.742188 37.753906 49.496094 37.753906 49.9375 37.625 C 50.316406 37.4375 50 37.3125 49.117188 37.3125 C 48.238281 37.3125 47.921875 37.4375 48.363281 37.625 Z M 48.363281 37.625 "/>
<path style=" stroke:none;fill-rule:nonzero;fill:#00faf0;fill-opacity:1;" d="M 80.480469 37.625 C 80.855469 37.753906 81.613281 37.753906 82.054688 37.625 C 82.429688 37.4375 82.117188 37.3125 81.234375 37.3125 C 80.351562 37.3125 80.039062 37.4375 80.480469 37.625 Z M 80.480469 37.625 "/>
<path style=" stroke:none;fill-rule:nonzero;fill:#00faf0;fill-opacity:1;" d="M 48.679688 38.886719 C 49.246094 39.011719 50.125 39.011719 50.566406 38.886719 C 50.945312 38.699219 50.503906 38.570312 49.433594 38.570312 C 48.425781 38.570312 48.046875 38.699219 48.679688 38.886719 Z M 48.679688 38.886719 "/>
<path style=" stroke:none;fill-rule:nonzero;fill:#00faf0;fill-opacity:1;" d="M 80.480469 38.886719 C 80.855469 39.011719 81.613281 39.011719 82.054688 38.886719 C 82.429688 38.699219 82.117188 38.570312 81.234375 38.570312 C 80.351562 38.570312 80.039062 38.699219 80.480469 38.886719 Z M 80.480469 38.886719 "/>
<path style=" stroke:none;fill-rule:nonzero;fill:#00faf0;fill-opacity:1;" d="M 48.679688 40.148438 C 49.246094 40.273438 50.125 40.273438 50.566406 40.148438 C 50.945312 39.957031 50.503906 39.832031 49.433594 39.832031 C 48.425781 39.832031 48.046875 39.957031 48.679688 40.148438 Z M 48.679688 40.148438 "/>
<path style=" stroke:none;fill-rule:nonzero;fill:#00faf0;fill-opacity:1;" d="M 80.164062 40.148438 C 80.730469 40.273438 81.613281 40.273438 82.054688 40.148438 C 82.429688 39.957031 81.992188 39.832031 80.921875 39.832031 C 79.914062 39.832031 79.535156 39.957031 80.164062 40.148438 Z M 80.164062 40.148438 "/>
<path style=" stroke:none;fill-rule:nonzero;fill:#00faf0;fill-opacity:1;" d="M 199.308594 16.574219 C 193.894531 18.402344 189.675781 21.933594 187.21875 26.722656 C 184.886719 31.261719 184.511719 38.632812 186.335938 43.488281 C 188.730469 49.851562 193.074219 53.824219 200 55.839844 C 207.054688 57.855469 214.546875 56.09375 220.089844 50.988281 C 223.617188 47.710938 225.066406 45.0625 226.070312 39.832031 C 227.898438 30.628906 223.300781 21.679688 214.800781 17.710938 C 210.644531 15.820312 203.339844 15.253906 199.308594 16.574219 Z M 214.800781 19.980469 C 225.570312 26.03125 227.332031 41.34375 218.199219 49.726562 C 214.359375 53.257812 211.527344 54.390625 205.921875 54.453125 C 201.953125 54.515625 200.632812 54.265625 197.609375 52.753906 C 190.933594 49.476562 187.53125 43.613281 187.597656 35.609375 C 187.597656 30.628906 189.234375 26.535156 192.570312 23.128906 C 196.726562 18.84375 199.9375 17.585938 206.613281 17.898438 C 210.582031 18.023438 212.03125 18.402344 214.800781 19.980469 Z M 214.800781 19.980469 "/>
<path style=" stroke:none;fill-rule:nonzero;fill:#00faf0;fill-opacity:1;" d="M 201.261719 23.445312 C 197.988281 24.328125 193.640625 28.613281 192.757812 31.828125 C 191.25 37.375 192.382812 42.039062 196.097656 45.757812 C 202.015625 51.679688 212.34375 50.796875 217.066406 43.929688 C 218.640625 41.722656 218.832031 40.777344 218.832031 36.617188 C 218.832031 33.96875 218.578125 31.199219 218.328125 30.441406 C 217.886719 29.242188 218.074219 29.054688 219.585938 28.800781 C 221.097656 28.613281 221.097656 28.550781 219.269531 28.613281 C 217.824219 28.613281 216.816406 28.171875 215.683594 26.910156 C 212.40625 23.382812 206.488281 21.996094 201.261719 23.445312 Z M 211.023438 26.03125 C 214.800781 28.046875 216.625 31.324219 216.625 36.238281 C 216.625 42.730469 212.972656 46.953125 206.738281 47.648438 C 201.261719 48.277344 195.84375 44.179688 194.835938 38.699219 C 193.011719 28.800781 202.332031 21.492188 211.023438 26.03125 Z M 211.023438 26.03125 "/>
<path style=" stroke:none;fill-rule:nonzero;fill:#00faf0;fill-opacity:1;" d="M 190.367188 28.800781 C 190.933594 28.929688 191.941406 28.929688 192.570312 28.800781 C 193.136719 28.613281 192.632812 28.488281 191.4375 28.488281 C 190.242188 28.488281 189.738281 28.613281 190.367188 28.800781 Z M 190.367188 28.800781 "/>
<path style=" stroke:none;fill-rule:nonzero;fill:#00faf0;fill-opacity:1;" d="M 189.421875 32.585938 C 189.800781 32.710938 190.554688 32.710938 190.996094 32.585938 C 191.375 32.394531 191.058594 32.269531 190.179688 32.269531 C 189.296875 32.269531 188.980469 32.394531 189.421875 32.585938 Z M 189.421875 32.585938 "/>
<path style=" stroke:none;fill-rule:nonzero;fill:#00faf0;fill-opacity:1;" d="M 220.59375 32.585938 C 221.160156 32.710938 222.042969 32.710938 222.484375 32.585938 C 222.859375 32.394531 222.417969 32.269531 221.347656 32.269531 C 220.339844 32.269531 219.964844 32.394531 220.59375 32.585938 Z M 220.59375 32.585938 "/>
<path style=" stroke:none;fill-rule:nonzero;fill:#00faf0;fill-opacity:1;" d="M 189.105469 33.84375 C 189.675781 33.96875 190.554688 33.96875 190.996094 33.84375 C 191.375 33.65625 190.933594 33.53125 189.863281 33.53125 C 188.855469 33.53125 188.476562 33.65625 189.105469 33.84375 Z M 189.105469 33.84375 "/>
<path style=" stroke:none;fill-rule:nonzero;fill:#00faf0;fill-opacity:1;" d="M 220.910156 33.84375 C 221.285156 33.96875 222.042969 33.96875 222.484375 33.84375 C 222.859375 33.65625 222.546875 33.53125 221.664062 33.53125 C 220.78125 33.53125 220.46875 33.65625 220.910156 33.84375 Z M 220.910156 33.84375 "/>
<path style=" stroke:none;fill-rule:nonzero;fill:#00faf0;fill-opacity:1;" d="M 188.792969 35.105469 C 189.171875 35.230469 189.925781 35.230469 190.367188 35.105469 C 190.746094 34.914062 190.429688 34.789062 189.546875 34.789062 C 188.667969 34.789062 188.351562 34.914062 188.792969 35.105469 Z M 188.792969 35.105469 "/>
<path style=" stroke:none;fill-rule:nonzero;fill:#00faf0;fill-opacity:1;" d="M 220.910156 35.105469 C 221.285156 35.230469 222.042969 35.230469 222.484375 35.105469 C 222.859375 34.914062 222.546875 34.789062 221.664062 34.789062 C 220.78125 34.789062 220.46875 34.914062 220.910156 35.105469 Z M 220.910156 35.105469 "/>
<path style=" stroke:none;fill-rule:nonzero;fill:#00faf0;fill-opacity:1;" d="M 189.105469 36.367188 C 189.675781 36.492188 190.554688 36.492188 190.996094 36.367188 C 191.375 36.175781 190.933594 36.050781 189.863281 36.050781 C 188.855469 36.050781 188.476562 36.175781 189.105469 36.367188 Z M 189.105469 36.367188 "/>
<path style=" stroke:none;fill-rule:nonzero;fill:#00faf0;fill-opacity:1;" d="M 221.222656 36.367188 C 221.789062 36.492188 222.671875 36.492188 223.113281 36.367188 C 223.492188 36.175781 223.050781 36.050781 221.980469 36.050781 C 220.972656 36.050781 220.59375 36.175781 221.222656 36.367188 Z M 221.222656 36.367188 "/>
<path style=" stroke:none;fill-rule:nonzero;fill:#00faf0;fill-opacity:1;" d="M 189.105469 37.625 C 189.675781 37.753906 190.554688 37.753906 190.996094 37.625 C 191.375 37.4375 190.933594 37.3125 189.863281 37.3125 C 188.855469 37.3125 188.476562 37.4375 189.105469 37.625 Z M 189.105469 37.625 "/>
<path style=" stroke:none;fill-rule:nonzero;fill:#00faf0;fill-opacity:1;" d="M 220.910156 37.625 C 221.285156 37.753906 222.042969 37.753906 222.484375 37.625 C 222.859375 37.4375 222.546875 37.3125 221.664062 37.3125 C 220.78125 37.3125 220.46875 37.4375 220.910156 37.625 Z M 220.910156 37.625 "/>
<path style=" stroke:none;fill-rule:nonzero;fill:#00faf0;fill-opacity:1;" d="M 189.105469 38.886719 C 189.675781 39.011719 190.554688 39.011719 190.996094 38.886719 C 191.375 38.699219 190.933594 38.570312 189.863281 38.570312 C 188.855469 38.570312 188.476562 38.699219 189.105469 38.886719 Z M 189.105469 38.886719 "/>
<path style=" stroke:none;fill-rule:nonzero;fill:#00faf0;fill-opacity:1;" d="M 220.910156 38.886719 C 221.285156 39.011719 222.042969 39.011719 222.484375 38.886719 C 222.859375 38.699219 222.546875 38.570312 221.664062 38.570312 C 220.78125 38.570312 220.46875 38.699219 220.910156 38.886719 Z M 220.910156 38.886719 "/>
<path style=" stroke:none;fill-rule:nonzero;fill:#00faf0;fill-opacity:1;" d="M 189.105469 40.148438 C 189.675781 40.273438 190.554688 40.273438 190.996094 40.148438 C 191.375 39.957031 190.933594 39.832031 189.863281 39.832031 C 188.855469 39.832031 188.476562 39.957031 189.105469 40.148438 Z M 189.105469 40.148438 "/>
<path style=" stroke:none;fill-rule:nonzero;fill:#00faf0;fill-opacity:1;" d="M 220.59375 40.148438 C 221.160156 40.273438 222.042969 40.273438 222.484375 40.148438 C 222.859375 39.957031 222.417969 39.832031 221.347656 39.832031 C 220.339844 39.832031 219.964844 39.957031 220.59375 40.148438 Z M 220.59375 40.148438 "/>
<path style=" stroke:none;fill-rule:nonzero;fill:#00faf0;fill-opacity:1;" d="M 294.398438 16.574219 C 290.492188 17.898438 288.226562 19.285156 285.644531 21.871094 C 277.835938 29.683594 278.214844 43.613281 286.335938 51.113281 C 296.285156 60.316406 313.101562 57.542969 319.082031 45.757812 C 321.351562 41.34375 321.855469 33.65625 320.152344 28.929688 C 318.578125 24.453125 313.917969 19.476562 309.699219 17.648438 C 305.605469 15.882812 298.113281 15.378906 294.398438 16.574219 Z M 308.882812 19.347656 C 320.089844 25.210938 322.421875 41.28125 313.351562 49.664062 C 309.574219 53.191406 304.285156 55.085938 299.433594 54.644531 C 294.523438 54.203125 291.5 52.878906 288.101562 49.726562 C 283.1875 45.1875 281.109375 37.753906 283 31.261719 C 284.890625 24.832031 288.605469 20.734375 294.523438 18.53125 C 297.988281 17.269531 305.667969 17.710938 308.882812 19.347656 Z M 308.882812 19.347656 "/>
<path style=" stroke:none;fill-rule:nonzero;fill:#00faf0;fill-opacity:1;" d="M 295.78125 23.570312 C 290.492188 25.460938 287.15625 30.316406 287.15625 36.238281 C 287.15625 43.425781 291.878906 48.71875 298.996094 49.601562 C 307.308594 50.546875 314.234375 44.496094 314.234375 36.238281 C 314.234375 26.722656 304.914062 20.355469 295.78125 23.570312 Z M 304.597656 25.273438 C 314.484375 28.992188 313.917969 43.929688 303.78125 47.269531 C 298.804688 48.96875 292.570312 46.070312 290.554688 41.15625 C 289.234375 38.003906 289.484375 33.402344 291.125 30.253906 C 293.578125 25.652344 299.625 23.382812 304.597656 25.273438 Z M 304.597656 25.273438 "/>
<path style=" stroke:none;fill-rule:nonzero;fill:#00faf0;fill-opacity:1;" d="M 285.457031 28.800781 C 286.023438 28.929688 286.902344 28.929688 287.34375 28.800781 C 287.722656 28.613281 287.28125 28.488281 286.210938 28.488281 C 285.203125 28.488281 284.824219 28.613281 285.457031 28.800781 Z M 285.457031 28.800781 "/>
<path style=" stroke:none;fill-rule:nonzero;fill:#00faf0;fill-opacity:1;" d="M 313.792969 28.800781 C 314.359375 28.929688 315.367188 28.929688 315.996094 28.800781 C 316.5625 28.613281 316.058594 28.488281 314.863281 28.488281 C 313.667969 28.488281 313.164062 28.613281 313.792969 28.800781 Z M 313.792969 28.800781 "/>
<path style=" stroke:none;fill-rule:nonzero;fill:#00faf0;fill-opacity:1;" d="M 284.195312 32.585938 C 284.761719 32.710938 285.644531 32.710938 286.085938 32.585938 C 286.464844 32.394531 286.023438 32.269531 284.953125 32.269531 C 283.945312 32.269531 283.566406 32.394531 284.195312 32.585938 Z M 284.195312 32.585938 "/>
<path style=" stroke:none;fill-rule:nonzero;fill:#00faf0;fill-opacity:1;" d="M 315.683594 32.585938 C 316.25 32.710938 317.132812 32.710938 317.570312 32.585938 C 317.949219 32.394531 317.507812 32.269531 316.4375 32.269531 C 315.429688 32.269531 315.054688 32.394531 315.683594 32.585938 Z M 315.683594 32.585938 "/>
<path style=" stroke:none;fill-rule:nonzero;fill:#00faf0;fill-opacity:1;" d="M 284.195312 33.84375 C 284.761719 33.96875 285.644531 33.96875 286.085938 33.84375 C 286.464844 33.65625 286.023438 33.53125 284.953125 33.53125 C 283.945312 33.53125 283.566406 33.65625 284.195312 33.84375 Z M 284.195312 33.84375 "/>
<path style=" stroke:none;fill-rule:nonzero;fill:#00faf0;fill-opacity:1;" d="M 315.683594 33.84375 C 316.25 33.96875 317.132812 33.96875 317.570312 33.84375 C 317.949219 33.65625 317.507812 33.53125 316.4375 33.53125 C 315.429688 33.53125 315.054688 33.65625 315.683594 33.84375 Z M 315.683594 33.84375 "/>
<path style=" stroke:none;fill-rule:nonzero;fill:#00faf0;fill-opacity:1;" d="M 283.882812 35.105469 C 284.257812 35.230469 285.015625 35.230469 285.457031 35.105469 C 285.832031 34.914062 285.519531 34.789062 284.636719 34.789062 C 283.753906 34.789062 283.441406 34.914062 283.882812 35.105469 Z M 283.882812 35.105469 "/>
<path style=" stroke:none;fill-rule:nonzero;fill:#00faf0;fill-opacity:1;" d="M 283.566406 36.367188 C 284.132812 36.492188 285.015625 36.492188 285.457031 36.367188 C 285.832031 36.175781 285.394531 36.050781 284.320312 36.050781 C 283.316406 36.050781 282.9375 36.175781 283.566406 36.367188 Z M 283.566406 36.367188 "/>
<path style=" stroke:none;fill-rule:nonzero;fill:#00faf0;fill-opacity:1;" d="M 315.683594 36.367188 C 316.25 36.492188 317.132812 36.492188 317.570312 36.367188 C 317.949219 36.175781 317.507812 36.050781 316.4375 36.050781 C 315.429688 36.050781 315.054688 36.175781 315.683594 36.367188 Z M 315.683594 36.367188 "/>
<path style=" stroke:none;fill-rule:nonzero;fill:#00faf0;fill-opacity:1;" d="M 283.882812 37.625 C 284.257812 37.753906 285.015625 37.753906 285.457031 37.625 C 285.832031 37.4375 285.519531 37.3125 284.636719 37.3125 C 283.753906 37.3125 283.441406 37.4375 283.882812 37.625 Z M 283.882812 37.625 "/>
<path style=" stroke:none;fill-rule:nonzero;fill:#00faf0;fill-opacity:1;" d="M 315.683594 37.625 C 316.25 37.753906 317.132812 37.753906 317.570312 37.625 C 317.949219 37.4375 317.507812 37.3125 316.4375 37.3125 C 315.429688 37.3125 315.054688 37.4375 315.683594 37.625 Z M 315.683594 37.625 "/>
<path style=" stroke:none;fill-rule:nonzero;fill:#00faf0;fill-opacity:1;" d="M 284.195312 38.886719 C 284.761719 39.011719 285.644531 39.011719 286.085938 38.886719 C 286.464844 38.699219 286.023438 38.570312 284.953125 38.570312 C 283.945312 38.570312 283.566406 38.699219 284.195312 38.886719 Z M 284.195312 38.886719 "/>
<path style=" stroke:none;fill-rule:nonzero;fill:#00faf0;fill-opacity:1;" d="M 315.683594 38.886719 C 316.25 39.011719 317.132812 39.011719 317.570312 38.886719 C 317.949219 38.699219 317.507812 38.570312 316.4375 38.570312 C 315.429688 38.570312 315.054688 38.699219 315.683594 38.886719 Z M 315.683594 38.886719 "/>
<path style=" stroke:none;fill-rule:nonzero;fill:#00faf0;fill-opacity:1;" d="M 284.195312 40.148438 C 284.761719 40.273438 285.644531 40.273438 286.085938 40.148438 C 286.464844 39.957031 286.023438 39.832031 284.953125 39.832031 C 283.945312 39.832031 283.566406 39.957031 284.195312 40.148438 Z M 284.195312 40.148438 "/>
<path style=" stroke:none;fill-rule:nonzero;fill:#00faf0;fill-opacity:1;" d="M 315.683594 40.148438 C 316.25 40.273438 317.132812 40.273438 317.570312 40.148438 C 317.949219 39.957031 317.507812 39.832031 316.4375 39.832031 C 315.429688 39.832031 315.054688 39.957031 315.683594 40.148438 Z M 315.683594 40.148438 "/>
<path style=" stroke:none;fill-rule:nonzero;fill:#00faf0;fill-opacity:1;" d="M 11.964844 36.238281 L 11.964844 55.460938 L 21.410156 55.460938 L 21.410156 41.597656 L 25.691406 41.597656 C 31.488281 41.597656 34.507812 40.589844 37.21875 37.878906 C 42.003906 33.152344 41.875 24.894531 37.027344 20.355469 C 34.066406 17.585938 31.488281 17.015625 21.410156 17.015625 L 11.964844 17.015625 Z M 33.375 20.105469 C 36.648438 21.871094 38.601562 25.902344 38.160156 30.1875 C 37.847656 33.84375 36.648438 35.925781 33.753906 38.066406 C 32.304688 39.136719 30.917969 39.453125 25.441406 39.578125 L 18.890625 39.832031 L 18.890625 53.570312 L 14.484375 53.570312 L 14.484375 18.90625 L 22.859375 18.90625 C 29.785156 18.90625 31.550781 19.097656 33.375 20.105469 Z M 33.375 20.105469 "/>
<path style=" stroke:none;fill-rule:nonzero;fill:#00faf0;fill-opacity:1;" d="M 26.007812 22.5 C 27.644531 22.625 30.289062 22.625 31.988281 22.5 C 33.628906 22.375 32.242188 22.3125 28.96875 22.3125 C 25.691406 22.3125 24.308594 22.375 26.007812 22.5 Z M 26.007812 22.5 "/>
<path style=" stroke:none;fill-rule:nonzero;fill:#00faf0;fill-opacity:1;" d="M 18.890625 29.308594 L 18.890625 35.292969 L 24.179688 35.292969 C 28.527344 35.292969 29.722656 35.042969 31.046875 34.035156 C 33.25 32.332031 33.878906 28.929688 32.558594 26.09375 L 31.550781 24.011719 L 33.878906 23.824219 C 35.140625 23.699219 32.304688 23.507812 27.582031 23.445312 L 18.890625 23.320312 Z M 30.226562 26.40625 C 31.171875 28.234375 30.984375 30.945312 29.785156 32.269531 C 29.03125 33.089844 27.832031 33.402344 25.0625 33.402344 L 21.410156 33.402344 L 21.410156 25.210938 L 25.503906 25.210938 C 28.839844 25.210938 29.660156 25.398438 30.226562 26.40625 Z M 30.226562 26.40625 "/>
<path style=" stroke:none;fill-rule:nonzero;fill:#00faf0;fill-opacity:1;" d="M 33.566406 25.019531 C 34.132812 25.148438 35.140625 25.148438 35.769531 25.019531 C 36.335938 24.832031 35.832031 24.707031 34.636719 24.707031 C 33.4375 24.707031 32.933594 24.832031 33.566406 25.019531 Z M 33.566406 25.019531 "/>
<path style=" stroke:none;fill-rule:nonzero;fill:#00faf0;fill-opacity:1;" d="M 34.195312 26.28125 C 34.761719 26.40625 35.769531 26.40625 36.398438 26.28125 C 36.964844 26.09375 36.460938 25.964844 35.265625 25.964844 C 34.066406 25.964844 33.566406 26.09375 34.195312 26.28125 Z M 34.195312 26.28125 "/>
<path style=" stroke:none;fill-rule:nonzero;fill:#00faf0;fill-opacity:1;" d="M 34.824219 27.542969 C 35.390625 27.667969 36.273438 27.667969 36.714844 27.542969 C 37.089844 27.351562 36.648438 27.226562 35.578125 27.226562 C 34.570312 27.226562 34.195312 27.351562 34.824219 27.542969 Z M 34.824219 27.542969 "/>
<path style=" stroke:none;fill-rule:nonzero;fill:#00faf0;fill-opacity:1;" d="M 34.824219 28.800781 C 35.390625 28.929688 36.273438 28.929688 36.714844 28.800781 C 37.089844 28.613281 36.648438 28.488281 35.578125 28.488281 C 34.570312 28.488281 34.195312 28.613281 34.824219 28.800781 Z M 34.824219 28.800781 "/>
<path style=" stroke:none;fill-rule:nonzero;fill:#00faf0;fill-opacity:1;" d="M 34.824219 30.0625 C 35.390625 30.1875 36.273438 30.1875 36.714844 30.0625 C 37.089844 29.875 36.648438 29.746094 35.578125 29.746094 C 34.570312 29.746094 34.195312 29.875 34.824219 30.0625 Z M 34.824219 30.0625 "/>
<path style=" stroke:none;fill-rule:nonzero;fill:#00faf0;fill-opacity:1;" d="M 34.824219 31.324219 C 35.390625 31.449219 36.273438 31.449219 36.714844 31.324219 C 37.089844 31.132812 36.648438 31.007812 35.578125 31.007812 C 34.570312 31.007812 34.195312 31.132812 34.824219 31.324219 Z M 34.824219 31.324219 "/>
<path style=" stroke:none;fill-rule:nonzero;fill:#00faf0;fill-opacity:1;" d="M 34.195312 32.585938 C 34.761719 32.710938 35.769531 32.710938 36.398438 32.585938 C 36.964844 32.394531 36.460938 32.269531 35.265625 32.269531 C 34.066406 32.269531 33.566406 32.394531 34.195312 32.585938 Z M 34.195312 32.585938 "/>
<path style=" stroke:none;fill-rule:nonzero;fill:#00faf0;fill-opacity:1;" d="M 33.566406 33.84375 C 34.132812 33.96875 35.140625 33.96875 35.769531 33.84375 C 36.335938 33.65625 35.832031 33.53125 34.636719 33.53125 C 33.4375 33.53125 32.933594 33.65625 33.566406 33.84375 Z M 33.566406 33.84375 "/>
<path style=" stroke:none;fill-rule:nonzero;fill:#00faf0;fill-opacity:1;" d="M 32.621094 35.105469 C 33.375 35.230469 34.507812 35.230469 35.140625 35.105469 C 35.707031 34.914062 35.074219 34.789062 33.691406 34.851562 C 32.304688 34.851562 31.800781 34.980469 32.621094 35.105469 Z M 32.621094 35.105469 "/>
<path style=" stroke:none;fill-rule:nonzero;fill:#00faf0;fill-opacity:1;" d="M 23.175781 36.367188 C 25.316406 36.492188 28.839844 36.492188 31.046875 36.367188 C 33.1875 36.238281 31.421875 36.175781 27.078125 36.175781 C 22.734375 36.175781 20.96875 36.238281 23.175781 36.367188 Z M 23.175781 36.367188 "/>
<path style=" stroke:none;fill-rule:nonzero;fill:#00faf0;fill-opacity:1;" d="M 22.796875 37.625 C 24.8125 37.753906 28.085938 37.753906 30.039062 37.625 C 32.054688 37.5 30.414062 37.4375 26.449219 37.4375 C 22.480469 37.4375 20.84375 37.5 22.796875 37.625 Z M 22.796875 37.625 "/>
<path style=" stroke:none;fill-rule:nonzero;fill:#00faf0;fill-opacity:1;" d="M 24.75 38.886719 C 25.691406 39.011719 27.203125 39.011719 28.210938 38.886719 C 29.15625 38.761719 28.335938 38.632812 26.449219 38.632812 C 24.558594 38.632812 23.742188 38.761719 24.75 38.886719 Z M 24.75 38.886719 "/>
<path style=" stroke:none;fill-rule:nonzero;fill:#00faf0;fill-opacity:1;" d="M 92.570312 36.238281 L 92.570312 55.460938 L 101.953125 55.460938 L 102.140625 48.402344 L 102.332031 41.28125 L 107.242188 48.339844 L 112.15625 55.460938 L 117.757812 55.460938 C 120.90625 55.460938 123.425781 55.273438 123.425781 54.957031 C 123.425781 54.707031 121.285156 51.679688 118.703125 48.214844 C 116.121094 44.746094 113.980469 41.722656 113.980469 41.535156 C 113.980469 41.28125 114.863281 40.777344 115.871094 40.335938 C 123.550781 37.183594 124.9375 24.957031 118.261719 19.980469 C 114.863281 17.457031 112.46875 17.015625 102.269531 17.015625 L 92.570312 17.015625 Z M 114.925781 20.355469 C 117.820312 21.996094 120.277344 26.15625 120.277344 29.558594 C 120.277344 33.214844 118.074219 36.933594 114.988281 38.382812 C 113.539062 39.136719 111.839844 39.707031 111.273438 39.707031 C 110.707031 39.707031 110.203125 39.957031 110.203125 40.273438 C 110.203125 41.21875 105.164062 41.40625 104.410156 40.523438 C 104.03125 40.085938 102.960938 39.707031 101.953125 39.707031 L 100.125 39.707031 L 100.125 53.570312 L 95.089844 53.570312 L 95.089844 18.90625 L 103.777344 18.90625 C 111.523438 18.90625 112.660156 19.097656 114.925781 20.355469 Z M 114.738281 46.449219 C 116.941406 49.539062 118.957031 52.246094 119.144531 52.625 C 119.394531 53.003906 118.324219 53.320312 116.5 53.382812 L 113.539062 53.507812 L 109.636719 47.898438 C 107.558594 44.875 105.792969 42.164062 105.792969 41.976562 C 105.792969 41.847656 106.863281 41.535156 108.1875 41.40625 C 109.445312 41.28125 110.582031 41.15625 110.644531 41.09375 C 110.644531 41.03125 112.53125 43.425781 114.738281 46.449219 Z M 114.738281 46.449219 "/>
<path style=" stroke:none;fill-rule:nonzero;fill:#00faf0;fill-opacity:1;" d="M 104.09375 22.5 C 106.425781 22.625 110.140625 22.625 112.28125 22.5 C 114.421875 22.375 112.53125 22.3125 108 22.3125 C 103.527344 22.3125 101.765625 22.375 104.09375 22.5 Z M 104.09375 22.5 "/>
<path style=" stroke:none;fill-rule:nonzero;fill:#00faf0;fill-opacity:1;" d="M 100.125 29.308594 L 100.125 35.292969 L 106.109375 35.292969 C 111.652344 35.292969 112.28125 35.167969 113.664062 33.78125 C 115.933594 31.511719 116.3125 29.179688 114.800781 26.34375 L 113.476562 24.011719 L 114.863281 23.824219 C 115.554688 23.699219 112.59375 23.507812 108.1875 23.445312 L 100.125 23.257812 Z M 112.34375 26.597656 C 112.910156 27.351562 113.351562 28.613281 113.351562 29.308594 C 113.351562 30 112.910156 31.261719 112.34375 32.015625 C 111.523438 33.214844 110.832031 33.402344 106.675781 33.402344 L 102.015625 33.402344 L 102.015625 25.210938 L 106.675781 25.210938 C 110.832031 25.210938 111.523438 25.398438 112.34375 26.597656 Z M 112.34375 26.597656 "/>
<path style=" stroke:none;fill-rule:nonzero;fill:#00faf0;fill-opacity:1;" d="M 115.742188 25.019531 C 116.121094 25.148438 116.878906 25.148438 117.316406 25.019531 C 117.695312 24.832031 117.382812 24.707031 116.5 24.707031 C 115.617188 24.707031 115.304688 24.832031 115.742188 25.019531 Z M 115.742188 25.019531 "/>
<path style=" stroke:none;fill-rule:nonzero;fill:#00faf0;fill-opacity:1;" d="M 116.6875 26.28125 C 117.253906 26.40625 118.136719 26.40625 118.578125 26.28125 C 118.957031 26.09375 118.515625 25.964844 117.445312 25.964844 C 116.4375 25.964844 116.058594 26.09375 116.6875 26.28125 Z M 116.6875 26.28125 "/>
<path style=" stroke:none;fill-rule:nonzero;fill:#00faf0;fill-opacity:1;" d="M 117.003906 28.800781 C 117.382812 28.929688 118.136719 28.929688 118.578125 28.800781 C 118.957031 28.613281 118.640625 28.488281 117.757812 28.488281 C 116.878906 28.488281 116.5625 28.613281 117.003906 28.800781 Z M 117.003906 28.800781 "/>
<path style=" stroke:none;fill-rule:nonzero;fill:#00faf0;fill-opacity:1;" d="M 117.003906 30.0625 C 117.382812 30.1875 118.136719 30.1875 118.578125 30.0625 C 118.957031 29.875 118.640625 29.746094 117.757812 29.746094 C 116.878906 29.746094 116.5625 29.875 117.003906 30.0625 Z M 117.003906 30.0625 "/>
<path style=" stroke:none;fill-rule:nonzero;fill:#00faf0;fill-opacity:1;" d="M 117.003906 31.324219 C 117.382812 31.449219 118.136719 31.449219 118.578125 31.324219 C 118.957031 31.132812 118.640625 31.007812 117.757812 31.007812 C 116.878906 31.007812 116.5625 31.132812 117.003906 31.324219 Z M 117.003906 31.324219 "/>
<path style=" stroke:none;fill-rule:nonzero;fill:#00faf0;fill-opacity:1;" d="M 116.6875 32.585938 C 117.253906 32.710938 118.136719 32.710938 118.578125 32.585938 C 118.957031 32.394531 118.515625 32.269531 117.445312 32.269531 C 116.4375 32.269531 116.058594 32.394531 116.6875 32.585938 Z M 116.6875 32.585938 "/>
<path style=" stroke:none;fill-rule:nonzero;fill:#00faf0;fill-opacity:1;" d="M 116.058594 33.84375 C 116.625 33.96875 117.507812 33.96875 117.949219 33.84375 C 118.324219 33.65625 117.886719 33.53125 116.816406 33.53125 C 115.808594 33.53125 115.429688 33.65625 116.058594 33.84375 Z M 116.058594 33.84375 "/>
<path style=" stroke:none;fill-rule:nonzero;fill:#00faf0;fill-opacity:1;" d="M 114.800781 35.105469 C 115.367188 35.230469 116.375 35.230469 117.003906 35.105469 C 117.570312 34.914062 117.066406 34.789062 115.871094 34.789062 C 114.671875 34.789062 114.167969 34.914062 114.800781 35.105469 Z M 114.800781 35.105469 "/>
<path style=" stroke:none;fill-rule:nonzero;fill:#00faf0;fill-opacity:1;" d="M 104.03125 36.367188 C 106.359375 36.492188 110.328125 36.492188 112.847656 36.367188 C 115.367188 36.300781 113.476562 36.175781 108.628906 36.175781 C 103.777344 36.175781 101.699219 36.238281 104.03125 36.367188 Z M 104.03125 36.367188 "/>
<path style=" stroke:none;fill-rule:nonzero;fill:#00faf0;fill-opacity:1;" d="M 103.777344 37.625 C 105.921875 37.753906 109.445312 37.753906 111.652344 37.625 C 113.792969 37.5 112.027344 37.4375 107.683594 37.4375 C 103.339844 37.4375 101.574219 37.5 103.777344 37.625 Z M 103.777344 37.625 "/>
<path style=" stroke:none;fill-rule:nonzero;fill:#00faf0;fill-opacity:1;" d="M 102.519531 38.886719 C 103.96875 39.011719 106.359375 39.011719 107.871094 38.886719 C 109.320312 38.761719 108.125 38.632812 105.164062 38.632812 C 102.203125 38.632812 101.007812 38.761719 102.519531 38.886719 Z M 102.519531 38.886719 "/>
<path style=" stroke:none;fill-rule:nonzero;fill:#00faf0;fill-opacity:1;" d="M 106.296875 40.148438 C 107.054688 40.273438 108.1875 40.273438 108.816406 40.148438 C 109.382812 39.957031 108.753906 39.832031 107.367188 39.894531 C 105.984375 39.894531 105.480469 40.019531 106.296875 40.148438 Z M 106.296875 40.148438 "/>
<path style=" stroke:none;fill-rule:nonzero;fill:#00faf0;fill-opacity:1;" d="M 107.871094 42.667969 C 108.4375 42.792969 109.445312 42.792969 110.078125 42.667969 C 110.644531 42.480469 110.140625 42.351562 108.941406 42.351562 C 107.746094 42.351562 107.242188 42.480469 107.871094 42.667969 Z M 107.871094 42.667969 "/>
<path style=" stroke:none;fill-rule:nonzero;fill:#00faf0;fill-opacity:1;" d="M 108.503906 43.929688 C 109.070312 44.054688 110.078125 44.054688 110.707031 43.929688 C 111.273438 43.738281 110.769531 43.613281 109.574219 43.613281 C 108.375 43.613281 107.871094 43.738281 108.503906 43.929688 Z M 108.503906 43.929688 "/>
<path style=" stroke:none;fill-rule:nonzero;fill:#00faf0;fill-opacity:1;" d="M 109.761719 45.1875 C 110.328125 45.316406 111.335938 45.316406 111.964844 45.1875 C 112.53125 45 112.027344 44.875 110.832031 44.875 C 109.636719 44.875 109.132812 45 109.761719 45.1875 Z M 109.761719 45.1875 "/>
<path style=" stroke:none;fill-rule:nonzero;fill:#00faf0;fill-opacity:1;" d="M 124.6875 21.113281 L 124.6875 25.210938 L 133.503906 25.210938 L 133.503906 55.460938 L 142.949219 55.460938 L 142.949219 25.210938 L 151.765625 25.210938 L 151.765625 17.015625 L 124.6875 17.015625 Z M 149.246094 21.113281 L 149.246094 23.320312 L 140.429688 23.320312 L 140.429688 53.632812 L 138.097656 53.445312 L 135.707031 53.257812 L 135.644531 42.226562 C 135.644531 36.175781 135.582031 29.433594 135.515625 27.226562 L 135.390625 23.320312 L 127.203125 23.320312 L 127.203125 18.90625 L 149.246094 18.90625 Z M 149.246094 21.113281 "/>
<path style=" stroke:none;fill-rule:nonzero;fill:#00faf0;fill-opacity:1;" d="M 132.746094 19.980469 C 135.582031 20.105469 140.242188 20.105469 143.136719 19.980469 C 145.972656 19.914062 143.640625 19.789062 137.910156 19.789062 C 132.179688 19.789062 129.851562 19.914062 132.746094 19.980469 Z M 132.746094 19.980469 "/>
<path style=" stroke:none;fill-rule:nonzero;fill:#00faf0;fill-opacity:1;" d="M 132.746094 21.238281 C 135.582031 21.367188 140.242188 21.367188 143.136719 21.238281 C 145.972656 21.175781 143.640625 21.050781 137.910156 21.050781 C 132.179688 21.050781 129.851562 21.175781 132.746094 21.238281 Z M 132.746094 21.238281 "/>
<path style=" stroke:none;fill-rule:nonzero;fill:#00faf0;fill-opacity:1;" d="M 132.746094 22.5 C 135.582031 22.625 140.242188 22.625 143.136719 22.5 C 145.972656 22.4375 143.640625 22.3125 137.910156 22.3125 C 132.179688 22.3125 129.851562 22.4375 132.746094 22.5 Z M 132.746094 22.5 "/>
<path style=" stroke:none;fill-rule:nonzero;fill:#00faf0;fill-opacity:1;" d="M 155.984375 22.183594 C 155.792969 25.085938 155.730469 33.65625 155.792969 41.28125 L 155.984375 55.148438 L 165.304688 55.148438 L 165.367188 48.53125 L 165.492188 41.910156 L 172.480469 41.722656 L 179.472656 41.535156 L 179.472656 33.402344 L 165.746094 33.402344 L 165.492188 29.558594 C 165.429688 27.480469 165.429688 25.589844 165.554688 25.460938 C 165.679688 25.335938 169.207031 25.210938 173.300781 25.210938 L 180.730469 25.210938 L 180.730469 17.015625 L 156.363281 17.015625 Z M 178.214844 21.113281 L 178.214844 23.320312 L 163.097656 23.320312 L 163.097656 35.292969 L 176.953125 35.292969 L 176.953125 39.707031 L 163.097656 39.707031 L 163.097656 53.570312 L 158.0625 53.570312 L 158.0625 18.90625 L 178.214844 18.90625 Z M 178.214844 21.113281 "/>
<path style=" stroke:none;fill-rule:nonzero;fill:#00faf0;fill-opacity:1;" d="M 163.917969 19.980469 C 166.625 20.105469 170.84375 20.105469 173.363281 19.980469 C 175.882812 19.914062 173.679688 19.789062 168.453125 19.789062 C 163.289062 19.789062 161.210938 19.914062 163.917969 19.980469 Z M 163.917969 19.980469 "/>
<path style=" stroke:none;fill-rule:nonzero;fill:#00faf0;fill-opacity:1;" d="M 165.175781 21.238281 C 167.507812 21.367188 171.285156 21.367188 173.679688 21.238281 C 176.007812 21.113281 174.058594 21.050781 169.398438 21.050781 C 164.738281 21.050781 162.785156 21.113281 165.175781 21.238281 Z M 165.175781 21.238281 "/>
<path style=" stroke:none;fill-rule:nonzero;fill:#00faf0;fill-opacity:1;" d="M 165.808594 22.5 C 168.136719 22.625 171.851562 22.625 173.992188 22.5 C 176.136719 22.375 174.246094 22.3125 169.710938 22.3125 C 165.242188 22.3125 163.476562 22.375 165.808594 22.5 Z M 165.808594 22.5 "/>
<path style=" stroke:none;fill-rule:nonzero;fill:#00faf0;fill-opacity:1;" d="M 166.4375 36.367188 C 168.453125 36.492188 171.539062 36.492188 173.363281 36.367188 C 175.191406 36.238281 173.554688 36.175781 169.710938 36.175781 C 165.933594 36.175781 164.421875 36.238281 166.4375 36.367188 Z M 166.4375 36.367188 "/>
<path style=" stroke:none;fill-rule:nonzero;fill:#00faf0;fill-opacity:1;" d="M 166.4375 37.625 C 168.453125 37.753906 171.539062 37.753906 173.363281 37.625 C 175.191406 37.5 173.554688 37.4375 169.710938 37.4375 C 165.933594 37.4375 164.421875 37.5 166.4375 37.625 Z M 166.4375 37.625 "/>
<path style=" stroke:none;fill-rule:nonzero;fill:#00faf0;fill-opacity:1;" d="M 166.4375 38.886719 C 168.453125 39.011719 171.539062 39.011719 173.363281 38.886719 C 175.191406 38.761719 173.554688 38.699219 169.710938 38.699219 C 165.933594 38.699219 164.421875 38.761719 166.4375 38.886719 Z M 166.4375 38.886719 "/>
<path style=" stroke:none;fill-rule:nonzero;fill:#00faf0;fill-opacity:1;" d="M 233 36.238281 L 233 55.460938 L 259.449219 55.460938 L 259.449219 47.332031 L 251.136719 47.144531 L 242.761719 46.953125 L 242.570312 31.953125 L 242.445312 17.015625 L 233 17.015625 Z M 240.554688 34.035156 L 240.554688 49.160156 L 256.929688 49.160156 L 256.929688 53.570312 L 235.519531 53.570312 L 235.519531 18.90625 L 240.554688 18.90625 Z M 240.554688 34.035156 "/>
<path style=" stroke:none;fill-rule:nonzero;fill:#00faf0;fill-opacity:1;" d="M 243.199219 50.230469 C 245.53125 50.355469 249.5 50.355469 252.015625 50.230469 C 254.535156 50.167969 252.648438 50.042969 247.796875 50.042969 C 242.949219 50.042969 240.871094 50.105469 243.199219 50.230469 Z M 243.199219 50.230469 "/>
<path style=" stroke:none;fill-rule:nonzero;fill:#00faf0;fill-opacity:1;" d="M 242.632812 51.492188 C 245.34375 51.617188 249.5625 51.617188 252.078125 51.492188 C 254.597656 51.429688 252.394531 51.300781 247.167969 51.300781 C 242.003906 51.300781 239.925781 51.429688 242.632812 51.492188 Z M 242.632812 51.492188 "/>
<path style=" stroke:none;fill-rule:nonzero;fill:#00faf0;fill-opacity:1;" d="M 241.691406 52.753906 C 244.585938 52.878906 249.121094 52.878906 251.765625 52.753906 C 254.410156 52.6875 252.078125 52.5625 246.539062 52.5625 C 240.996094 52.5625 238.792969 52.6875 241.691406 52.753906 Z M 241.691406 52.753906 "/>
<path style=" stroke:none;fill-rule:nonzero;fill:#00faf0;fill-opacity:1;" d="M 263.855469 36.238281 L 263.855469 55.460938 L 273.300781 55.460938 L 273.300781 17.015625 L 263.855469 17.015625 Z M 270.78125 36.238281 L 270.78125 53.570312 L 266.375 53.570312 L 266.375 18.90625 L 270.78125 18.90625 Z M 270.78125 36.238281 "/>
<path style=" stroke:none;fill-rule:nonzero;fill:#00faf0;fill-opacity:1;" d="M 267.824219 36.367188 C 268.390625 36.492188 269.273438 36.492188 269.710938 36.367188 C 270.089844 36.175781 269.648438 36.050781 268.578125 36.050781 C 267.570312 36.050781 267.195312 36.175781 267.824219 36.367188 Z M 267.824219 36.367188 "/>
<path style=" stroke:none;fill-rule:nonzero;fill:#00faf0;fill-opacity:1;" d="M 267.824219 37.625 C 268.390625 37.753906 269.273438 37.753906 269.710938 37.625 C 270.089844 37.4375 269.648438 37.3125 268.578125 37.3125 C 267.570312 37.3125 267.195312 37.4375 267.824219 37.625 Z M 267.824219 37.625 "/>
</g>
</svg>