<svg xmlns="http://www.w3.org/2000/svg" xmlns:xlink="http://www.w3.org/1999/xlink" width="300px" height="80px" viewBox="0 0 298 80" version="1.1" transform="matrix(1, 0, 0, 1, 0, 0)">
<g id="surface1">
<path style=" stroke:none;fill-rule:nonzero;fill:#080103;fill-opacity:1;" d="M 248.003906 18.160156 C 241.21875 19.308594 234.886719 24.347656 232.199219 30.746094 C 231.136719 33.308594 230.683594 35.707031 230.683594 38.933594 C 230.683594 44.71875 232.519531 49.359375 236.40625 53.464844 L 237.65625 54.800781 L 236.296875 53.066406 C 234.515625 50.800781 233 47.8125 232.226562 45.171875 C 231.457031 42.398438 231.375 36.800781 232.121094 34.132812 C 233.769531 28.132812 237.921875 23.039062 243.347656 20.398438 C 246.328125 18.933594 248.9375 18.347656 252.636719 18.320312 C 254.921875 18.292969 255.480469 18.214844 254.628906 18.078125 C 253.007812 17.839844 249.761719 17.867188 248.003906 18.160156 Z M 248.003906 18.160156 "/>
<path style=" stroke:none;fill-rule:nonzero;fill:#080103;fill-opacity:1;" d="M 41.535156 25.867188 C 37.089844 26.800781 33.84375 30.132812 32.539062 35.011719 C 31.929688 37.28125 31.929688 42.480469 32.539062 44.773438 C 33.097656 46.800781 34.375 49.308594 35.308594 50.1875 L 36 50.800781 L 35.308594 49.734375 C 33.925781 47.625 33.472656 45.761719 33.339844 41.734375 C 33.230469 38.800781 33.285156 37.625 33.632812 36.265625 C 34.351562 33.414062 35.46875 31.441406 37.355469 29.652344 C 39.699219 27.464844 41.292969 26.851562 45.046875 26.71875 C 47.785156 26.613281 48.558594 26.375 47.308594 26.027344 C 46.191406 25.707031 42.703125 25.625 41.535156 25.867188 Z M 41.535156 25.867188 "/>
<path style=" stroke:none;fill-rule:nonzero;fill:#080103;fill-opacity:1;" d="M 56.78125 25.894531 C 53.691406 26.640625 51.164062 29.332031 49.96875 33.148438 C 49.4375 34.828125 49.355469 35.652344 49.355469 39.601562 C 49.355469 43.839844 49.410156 44.265625 50.101562 46.398438 C 50.5 47.652344 51.058594 48.960938 51.324219 49.308594 C 51.699219 49.785156 51.617188 49.386719 51.007812 47.574219 C 50.339844 45.546875 50.207031 44.691406 50.101562 41.601562 C 49.941406 37.414062 50.339844 35.066406 51.617188 32.292969 C 52.707031 29.972656 54.730469 27.894531 56.621094 27.199219 C 58.347656 26.535156 61.570312 26.480469 62.980469 27.066406 C 64.496094 27.707031 64.308594 27.332031 62.738281 26.558594 C 61.117188 25.761719 58.507812 25.464844 56.78125 25.894531 Z M 56.78125 25.894531 "/>
<path style=" stroke:none;fill-rule:nonzero;fill:#080103;fill-opacity:1;" d="M 138.382812 25.867188 C 133.941406 26.800781 130.695312 30.132812 129.390625 35.011719 C 128.777344 37.253906 128.777344 42.480469 129.390625 44.71875 C 129.789062 46.214844 131.011719 49.066406 131.28125 49.066406 C 131.332031 49.066406 131.066406 48.265625 130.695312 47.253906 C 129.816406 44.851562 129.550781 38.933594 130.214844 36.265625 C 130.933594 33.414062 132.050781 31.441406 133.941406 29.652344 C 136.308594 27.441406 137.878906 26.851562 141.761719 26.71875 C 144.609375 26.613281 145.433594 26.398438 144.15625 26.027344 C 143.039062 25.707031 139.554688 25.625 138.382812 25.867188 Z M 138.382812 25.867188 "/>
<path style=" stroke:none;fill-rule:nonzero;fill:#080103;fill-opacity:1;" d="M 200.882812 25.945312 C 196.945312 26.878906 194.789062 29.253906 194.550781 32.960938 C 194.445312 34.613281 194.523438 35.09375 195.109375 36.375 C 195.933594 38.1875 196.226562 38.320312 195.640625 36.640625 C 194.84375 34.238281 195.75 30.746094 197.609375 29.039062 C 199.6875 27.171875 201.65625 26.585938 205.433594 26.71875 C 207.03125 26.773438 208.332031 26.71875 208.332031 26.613281 C 208.332031 25.921875 203.066406 25.441406 200.882812 25.945312 Z M 200.882812 25.945312 "/>
<path style=" stroke:none;fill-rule:nonzero;fill:#080103;fill-opacity:1;" d="M 71.839844 39.464844 C 71.839844 52.878906 71.839844 53.066406 72.371094 53.066406 C 72.902344 53.066406 72.902344 52.878906 72.902344 40 L 72.902344 26.933594 L 75.191406 26.933594 C 77.160156 26.933594 77.453125 26.878906 77.320312 26.507812 C 77.242188 26.265625 77.160156 26.027344 77.160156 25.972656 C 77.160156 25.921875 75.964844 25.867188 74.5 25.867188 L 71.839844 25.867188 Z M 71.839844 39.464844 "/>
<path style=" stroke:none;fill-rule:nonzero;fill:#080103;fill-opacity:1;" d="M 84.371094 30.054688 C 84.371094 36.828125 84.742188 41.546875 85.328125 42.933594 L 85.859375 44.105469 L 85.59375 26.933594 L 87.511719 26.933594 C 89.214844 26.933594 89.398438 26.878906 89.398438 26.398438 C 89.398438 25.894531 89.214844 25.867188 86.871094 25.867188 L 84.34375 25.867188 Z M 84.371094 30.054688 "/>
<path style=" stroke:none;fill-rule:nonzero;fill:#080103;fill-opacity:1;" d="M 92.59375 28.265625 C 92.59375 30.480469 92.621094 30.667969 93.125 30.667969 C 93.605469 30.667969 93.65625 30.480469 93.65625 28.800781 L 93.65625 26.933594 L 101.238281 26.933594 C 108.636719 26.933594 108.824219 26.933594 108.824219 26.398438 C 108.824219 25.867188 108.636719 25.867188 100.707031 25.867188 L 92.59375 25.867188 Z M 92.59375 28.265625 "/>
<path style=" stroke:none;fill-rule:nonzero;fill:#080103;fill-opacity:1;" d="M 114.941406 26 C 114.941406 26.105469 109.167969 50.398438 108.691406 52.347656 C 108.503906 53.039062 108.558594 53.09375 109.089844 53.011719 C 109.675781 52.933594 109.886719 52.1875 112.789062 39.921875 L 115.875 26.933594 L 118.988281 26.933594 C 120.714844 26.933594 122.125 26.878906 122.125 26.828125 C 122.125 26.773438 122.046875 26.535156 121.96875 26.292969 C 121.835938 25.945312 121.25 25.867188 118.375 25.867188 C 116.484375 25.867188 114.941406 25.921875 114.941406 26 Z M 114.941406 26 "/>
<path style=" stroke:none;fill-rule:nonzero;fill:#080103;fill-opacity:1;" d="M 146.871094 28.265625 C 146.871094 30.480469 146.898438 30.667969 147.402344 30.667969 C 147.882812 30.667969 147.9375 30.480469 147.9375 28.800781 L 147.9375 26.933594 L 155.519531 26.933594 C 162.914062 26.933594 163.101562 26.933594 163.101562 26.398438 C 163.101562 25.867188 162.914062 25.867188 154.988281 25.867188 L 146.871094 25.867188 Z M 146.871094 28.265625 "/>
<path style=" stroke:none;fill-rule:nonzero;fill:#080103;fill-opacity:1;" d="M 173.210938 34.851562 C 173.210938 44.585938 173.398438 46.828125 174.410156 48.988281 C 175.179688 50.667969 175.5 50.878906 174.863281 49.253906 C 174.488281 48.292969 174.410156 46.691406 174.328125 37.519531 L 174.25 26.933594 L 176.511719 26.933594 C 178.613281 26.933594 178.800781 26.878906 178.800781 26.398438 C 178.800781 25.894531 178.613281 25.867188 176.007812 25.867188 L 173.210938 25.867188 Z M 173.210938 34.851562 "/>
<path style=" stroke:none;fill-rule:nonzero;fill:#080103;fill-opacity:1;" d="M 184.867188 35.785156 C 184.785156 45.253906 184.761719 45.785156 184.203125 46.960938 C 183.777344 47.945312 183.457031 48.265625 182.683594 48.535156 C 182.179688 48.691406 181.621094 48.773438 181.460938 48.667969 C 181.007812 48.375 181.167969 48.851562 181.671875 49.226562 C 182.417969 49.8125 183.800781 49.679688 184.492188 48.988281 C 185.558594 47.921875 185.71875 46.238281 185.71875 36.265625 L 185.71875 26.933594 L 188.113281 26.933594 C 190.320312 26.933594 190.507812 26.90625 190.507812 26.398438 C 190.507812 25.894531 190.320312 25.867188 187.738281 25.867188 L 184.972656 25.867188 Z M 184.867188 35.785156 "/>
<path style=" stroke:none;fill-rule:nonzero;fill:#080103;fill-opacity:1;" d="M 248.324219 28.746094 C 248.003906 28.800781 247.417969 29.199219 247.046875 29.625 C 246.222656 30.613281 246.167969 31.945312 246.914062 32.828125 L 247.445312 33.464844 L 247.3125 32.800781 C 246.941406 31.199219 248.269531 29.601562 249.949219 29.601562 C 250.933594 29.601562 250.984375 29.574219 250.507812 29.253906 C 249.839844 28.800781 249.097656 28.613281 248.324219 28.746094 Z M 248.324219 28.746094 "/>
<path style=" stroke:none;fill-rule:nonzero;fill:#080103;fill-opacity:1;" d="M 97.914062 42.535156 C 97.914062 52.878906 97.914062 53.066406 98.445312 53.066406 C 98.980469 53.066406 98.980469 52.878906 98.980469 42.535156 C 98.980469 32.1875 98.980469 32 98.445312 32 C 97.914062 32 97.914062 32.1875 97.914062 42.535156 Z M 97.914062 42.535156 "/>
<path style=" stroke:none;fill-rule:nonzero;fill:#080103;fill-opacity:1;" d="M 152.191406 42.535156 C 152.191406 52.878906 152.191406 53.066406 152.726562 53.066406 C 153.257812 53.066406 153.257812 52.878906 153.257812 42.535156 C 153.257812 32.1875 153.257812 32 152.726562 32 C 152.191406 32 152.191406 32.1875 152.191406 42.535156 Z M 152.191406 42.535156 "/>
<path style=" stroke:none;fill-rule:nonzero;fill:#080103;fill-opacity:1;" d="M 61.304688 32.71875 C 62.101562 35.332031 62.3125 41.066406 61.730469 44.265625 C 61.195312 47.171875 60.050781 48.800781 58.5625 48.800781 C 57.921875 48.800781 57.921875 48.800781 58.429688 49.199219 C 59.308594 49.867188 60.53125 49.707031 61.304688 48.800781 C 62.152344 47.761719 62.472656 46.667969 62.847656 43.253906 C 63.21875 39.894531 62.820312 35.308594 62.019531 33.464844 C 61.515625 32.292969 61.011719 31.8125 61.304688 32.71875 Z M 61.304688 32.71875 "/>
<path style=" stroke:none;fill-rule:nonzero;fill:#080103;fill-opacity:1;" d="M 119.09375 33.601562 C 118.988281 34.398438 119.148438 36.027344 119.597656 38.507812 C 119.972656 40.558594 120.265625 42.347656 120.265625 42.453125 C 120.265625 42.558594 119.597656 42.667969 118.800781 42.667969 C 117.523438 42.667969 117.335938 42.71875 117.335938 43.199219 C 117.335938 43.679688 117.523438 43.734375 119.199219 43.734375 C 120.796875 43.734375 121.0625 43.679688 121.0625 43.253906 C 121.035156 43.011719 120.636719 40.453125 120.15625 37.601562 C 119.386719 33.066406 119.253906 32.558594 119.09375 33.601562 Z M 119.09375 33.601562 "/>
<path style=" stroke:none;fill-rule:nonzero;fill:#080103;fill-opacity:1;" d="M 78.117188 37.867188 C 78.332031 39.625 78.597656 40.347656 81.738281 47.519531 C 83.09375 50.667969 84.292969 53.066406 84.503906 53.066406 C 84.71875 53.066406 84.210938 51.652344 83.09375 49.121094 C 80.753906 43.785156 79.636719 41.066406 78.730469 38.535156 L 77.957031 36.398438 Z M 78.117188 37.867188 "/>
<path style=" stroke:none;fill-rule:nonzero;fill:#080103;fill-opacity:1;" d="M 203.675781 37.199219 C 204.261719 37.679688 205.964844 38.613281 205.539062 38.214844 C 205.40625 38.054688 204.796875 37.679688 204.210938 37.359375 C 203.625 37.011719 203.386719 36.960938 203.675781 37.199219 Z M 203.675781 37.199219 "/>
<path style=" stroke:none;fill-rule:nonzero;fill:#080103;fill-opacity:1;" d="M 249.894531 43.28125 C 246.703125 46.507812 246.382812 46.933594 246.382812 47.785156 C 246.382812 48.320312 246.59375 48.988281 246.859375 49.308594 C 247.3125 49.894531 247.3125 49.867188 247.3125 48.800781 C 247.339844 47.761719 247.527344 47.546875 250.851562 44.1875 C 254.230469 40.773438 254.363281 40.613281 253.886719 40.1875 C 253.433594 39.761719 253.246094 39.894531 249.894531 43.28125 Z M 249.894531 43.28125 "/>
<path style=" stroke:none;fill-rule:nonzero;fill:#080103;fill-opacity:1;" d="M 203.785156 45.492188 C 203.863281 46.535156 203.757812 46.773438 202.960938 47.574219 C 201.789062 48.746094 200.21875 49.011719 197.585938 48.480469 C 196.546875 48.265625 195.507812 48 195.269531 47.894531 C 194.925781 47.734375 194.789062 48.054688 194.5 49.652344 C 194.3125 50.71875 194.097656 51.734375 194.046875 51.894531 C 193.886719 52.320312 194.816406 52.613281 195.058594 52.238281 C 195.164062 52.054688 195.324219 51.359375 195.429688 50.691406 C 195.722656 48.507812 195.695312 48.535156 196.972656 48.988281 C 198.328125 49.464844 201.042969 49.734375 202.292969 49.492188 C 203.386719 49.28125 204.503906 48.265625 204.6875 47.308594 C 204.847656 46.480469 204.476562 44.960938 203.996094 44.585938 C 203.757812 44.375 203.703125 44.585938 203.785156 45.492188 Z M 203.785156 45.492188 "/>
<path style=" stroke:none;fill-rule:nonzero;fill:#080103;fill-opacity:1;" d="M 121.195312 48.585938 C 121.273438 48.933594 121.488281 50.027344 121.699219 51.011719 C 121.914062 52 122.152344 52.90625 122.234375 52.988281 C 122.683594 53.441406 122.683594 52.585938 122.261719 50.398438 C 121.941406 48.746094 121.675781 48 121.433594 48 C 121.167969 48 121.089844 48.1875 121.195312 48.585938 Z M 121.195312 48.585938 "/>
<path style=" stroke:none;fill-rule:nonzero;fill:#080103;fill-opacity:1;" d="M 42.542969 48.691406 C 43.316406 49.199219 44.753906 49.601562 45.925781 49.601562 C 47.09375 49.601562 47.46875 49.359375 47.226562 48.746094 C 47.121094 48.507812 46.429688 48.398438 44.59375 48.398438 C 42.703125 48.398438 42.226562 48.480469 42.542969 48.691406 Z M 42.542969 48.691406 "/>
<path style=" stroke:none;fill-rule:nonzero;fill:#080103;fill-opacity:1;" d="M 139.128906 48.691406 C 139.875 49.199219 141.335938 49.601562 142.453125 49.601562 C 143.730469 49.601562 144.289062 49.308594 144.078125 48.773438 C 143.972656 48.480469 143.332031 48.398438 141.308594 48.398438 C 139.339844 48.398438 138.808594 48.480469 139.128906 48.691406 Z M 139.128906 48.691406 "/>
</g>
</svg>